# xmcd CD database file
#
# Track frame offsets:
#	150
#	22292
#	41760
#	60720
#
# Disc length: 1105 seconds
#
# Revision: 8
# Processed by: cddbd v1.5.2PL0 Copyright (c) Steve Scherf et al.
# Submitted via: CDex 1.70beta3
#
DISCID=35044f04
DTITLE=玉置成実 - Sanctuary
DYEAR=2006
DGENRE=Anime(J)
TTITLE0=Sanctuary
TTITLE1=Happiness
TTITLE2=Double Story
TTITLE3=Sanctuary -Instrumental-
EXTD=YEAR: 2006
EXTT0=
EXTT1=
EXTT2=
EXTT3=
PLAYORDER=
